<svg xmlns="http://www.w3.org/2000/svg" viewBox="0 0 50.82 86"><defs><style>.cls-1{fill:#f4cc0a;}.cls-2{fill:#fff;}</style></defs><g id="Layer_2" data-name="Layer 2"><g id="Layer_1-2" data-name="Layer 1"><ellipse class="cls-1" cx="25.41" cy="43" rx="25.41" ry="43"/><ellipse class="cls-2" cx="30.77" cy="43" rx="15.75" ry="35.96"/><path class="cls-1" d="M29.16,64.5h0c-1.19,0-3-.51-4.73-2.91a1.17,1.17,0,0,1,1.9-1.38,4,4,0,0,0,2.79,1.94A4.23,4.23,0,0,0,32,60.25a1.17,1.17,0,1,1,1.87,1.41A6.41,6.41,0,0,1,29.2,64.5Zm7-11a.86.86,0,0,1-.22,0A1.17,1.17,0,0,1,35,52.09,49.66,49.66,0,0,0,35.83,43,1.18,1.18,0,0,1,37,41.87h0A1.17,1.17,0,0,1,38.18,43a51.87,51.87,0,0,1-.84,9.49A1.16,1.16,0,0,1,36.19,53.48ZM22,53.44a1.19,1.19,0,0,1-1.15-.95A48.7,48.7,0,0,1,20,43a1.2,1.2,0,0,1,1.17-1.21,1.14,1.14,0,0,1,1.17,1.14H21.15l1.17,0A47.29,47.29,0,0,0,23.17,52a1.17,1.17,0,0,1-.91,1.38A1,1,0,0,1,22,53.44ZM36.2,34.94a1.18,1.18,0,0,1-1.15-1,20.49,20.49,0,0,0-3-8.18,1.17,1.17,0,1,1,1.88-1.39,22.74,22.74,0,0,1,3.45,9.14,1.17,1.17,0,0,1-.94,1.37ZM22,34.84a.85.85,0,0,1-.23,0,1.16,1.16,0,0,1-.92-1.38,23.55,23.55,0,0,1,3.55-9.09,1.18,1.18,0,0,1,1.89,1.4,21.43,21.43,0,0,0-3.14,8.16A1.18,1.18,0,0,1,22,34.84Z"/><ellipse class="cls-1" cx="29.12" cy="43" rx="1.84" ry="4.69"/></g></g></svg>